<?xml version="1.0" encoding="UTF-8"?>
<svg width="14px" height="105px" viewBox="0 0 14 105" version="1.1" xmlns="http://www.w3.org/2000/svg" xmlns:xlink="http://www.w3.org/1999/xlink">
    <!-- Generator: Sketch 61.2 (89653) - https://sketch.com -->
    <title>side-bar-open备份</title>
    <desc>Created with Sketch.</desc>
    <defs>
        <linearGradient x1="100%" y1="50.2227699%" x2="-4.72501936%" y2="50.2227699%" id="linearGradient-1">
            <stop stop-color="#FFFFFF" stop-opacity="0" offset="0%"></stop>
            <stop stop-color="#1890FF" offset="100%"></stop>
        </linearGradient>
    </defs>
    <g id="模版" stroke="none" stroke-width="1" fill="none" fill-rule="evenodd">
        <g id="基础资料/区域管理" transform="translate(-216.000000, -688.000000)" fill-rule="nonzero">
            <g id="side-bar-open备份" transform="translate(223.000000, 741.000000) scale(-1, 1) translate(-223.000000, -741.000000) translate(216.000000, 689.000000)">
                <g id="模版">
                    <g id="集团管控_品牌库管理_审_">
                        <g id="编组">
                            <g id="资源-1" fill="#FFFFFF" stroke="url(#linearGradient-1)">
                                <path d="M13.41,0 C12.0772631,4.20275953 10.0232865,8.14152191 7.34,11.64 L6.17,13.27 C2.08,19 0.5,22.58 0.5,28 L0.5,75.74 C0.5,81.16 2.08,84.74 6.2,90.53 L7.34,92.11 C10.44,96.44 12.34,99.81 13.41,103.47 L13.41,0 Z" id="路径"></path>
                            </g>
                            <g id="left" transform="translate(7.500000, 52.500000) scale(-1, 1) translate(-7.500000, -52.500000) translate(4.000000, 46.000000)" fill="#40A9FF">
                                <polygon id="路径-2" points="0.44 12.66 6.41 6.69 0.46 0.73"></polygon>
                            </g>
                        </g>
                    </g>
                </g>
            </g>
        </g>
    </g>
</svg>